<svg width="186" height="40" viewBox="0 0 186 40" fill="none" xmlns="http://www.w3.org/2000/svg">
<path d="M0 39.0244V0H15.0935C31.6964 0 31.6964 26.2848 15.0935 26.2848H10.5655V20.1002L15.0935 20.1307C17.6108 20.1307 19.6216 18.0531 19.6216 15.4617H10.5655V10.8014H16.6029C18.9721 10.8014 21.279 9.3946 21.1309 6.18467L6.05963 6.22822V32.4695C6.05963 36.4329 4.14609 39.0244 0 39.0244Z" fill="#2D3282"/>
<path d="M46.88 4.74H42.08V3H53.66V4.74H48.86V17H46.88V4.74ZM67.8783 3V17H65.8783V10.76H57.8383V17H55.8383V3H57.8383V9.02H65.8783V3H67.8783ZM82.2288 15.26V17H72.0688V3H81.9488V4.74H74.0688V9.04H81.0888V10.74H74.0688V15.26H82.2288ZM96.2983 3C98.1116 3 99.5383 3.43333 100.578 4.3C101.618 5.16667 102.138 6.36 102.138 7.88C102.138 9.4 101.618 10.5933 100.578 11.46C99.5383 12.3267 98.1116 12.76 96.2983 12.76H92.8383V17H90.8383V3H96.2983ZM96.2383 11.02C97.5049 11.02 98.4716 10.7533 99.1383 10.22C99.8049 9.67333 100.138 8.89333 100.138 7.88C100.138 6.86667 99.8049 6.09333 99.1383 5.56C98.4716 5.01333 97.5049 4.74 96.2383 4.74H92.8383V11.02H96.2383ZM105.077 3H107.077V17H105.077V3ZM123.291 3L117.151 17H115.171L109.011 3H111.171L116.211 14.5L121.291 3H123.291ZM133.701 17L129.501 11.22L125.361 17H123.061L128.321 9.82L123.381 3H125.661L129.581 8.38L133.461 3H135.641L130.701 9.76L136.001 17H133.701ZM46.1 24.74V29.62H53.12V31.34H46.1V37H44.1V23H53.98V24.74H46.1ZM62.9591 37.16C61.5457 37.16 60.2724 36.8533 59.1391 36.24C58.0057 35.6133 57.1124 34.7533 56.4591 33.66C55.8191 32.5667 55.4991 31.3467 55.4991 30C55.4991 28.6533 55.8191 27.4333 56.4591 26.34C57.1124 25.2467 58.0057 24.3933 59.1391 23.78C60.2724 23.1533 61.5457 22.84 62.9591 22.84C64.3591 22.84 65.6257 23.1533 66.7591 23.78C67.8924 24.3933 68.7791 25.2467 69.4191 26.34C70.0591 27.42 70.3791 28.64 70.3791 30C70.3791 31.36 70.0591 32.5867 69.4191 33.68C68.7791 34.76 67.8924 35.6133 66.7591 36.24C65.6257 36.8533 64.3591 37.16 62.9591 37.16ZM62.9591 35.38C63.9857 35.38 64.9057 35.1467 65.7191 34.68C66.5457 34.2133 67.1924 33.5733 67.6591 32.76C68.1391 31.9333 68.3791 31.0133 68.3791 30C68.3791 28.9867 68.1391 28.0733 67.6591 27.26C67.1924 26.4333 66.5457 25.7867 65.7191 25.32C64.9057 24.8533 63.9857 24.62 62.9591 24.62C61.9324 24.62 60.9991 24.8533 60.1591 25.32C59.3324 25.7867 58.6791 26.4333 58.1991 27.26C57.7324 28.0733 57.4991 28.9867 57.4991 30C57.4991 31.0133 57.7324 31.9333 58.1991 32.76C58.6791 33.5733 59.3324 34.2133 60.1591 34.68C60.9991 35.1467 61.9324 35.38 62.9591 35.38ZM79.2359 37.16C77.3693 37.16 75.9159 36.6267 74.8759 35.56C73.8359 34.4933 73.3159 32.96 73.3159 30.96V23H75.3159V30.88C75.3159 33.88 76.6293 35.38 79.2559 35.38C80.5359 35.38 81.5159 35.0133 82.1959 34.28C82.8759 33.5333 83.2159 32.4 83.2159 30.88V23H85.1559V30.96C85.1559 32.9733 84.6359 34.5133 83.5959 35.58C82.5559 36.6333 81.1026 37.16 79.2359 37.16ZM101.296 23V37H99.6562L91.2563 26.56V37H89.2563V23H90.8963L99.2963 33.44V23H101.296ZM105.487 23H111.387C112.867 23 114.18 23.2933 115.327 23.88C116.473 24.4667 117.36 25.2933 117.987 26.36C118.627 27.4133 118.947 28.6267 118.947 30C118.947 31.3733 118.627 32.5933 117.987 33.66C117.36 34.7133 116.473 35.5333 115.327 36.12C114.18 36.7067 112.867 37 111.387 37H105.487V23ZM111.267 35.26C112.4 35.26 113.393 35.04 114.247 34.6C115.113 34.16 115.78 33.5467 116.247 32.76C116.713 31.96 116.947 31.04 116.947 30C116.947 28.96 116.713 28.0467 116.247 27.26C115.78 26.46 115.113 25.84 114.247 25.4C113.393 24.96 112.4 24.74 111.267 24.74H107.487V35.26H111.267ZM130.735 33.5H123.295L121.755 37H119.695L126.035 23H128.015L134.375 37H132.275L130.735 33.5ZM130.035 31.9L127.015 25.04L123.995 31.9H130.035ZM138.54 24.74H133.74V23H145.32V24.74H140.52V37H138.54V24.74ZM147.498 23H149.498V37H147.498V23ZM160.01 37.16C158.597 37.16 157.323 36.8533 156.19 36.24C155.057 35.6133 154.163 34.7533 153.51 33.66C152.87 32.5667 152.55 31.3467 152.55 30C152.55 28.6533 152.87 27.4333 153.51 26.34C154.163 25.2467 155.057 24.3933 156.19 23.78C157.323 23.1533 158.597 22.84 160.01 22.84C161.41 22.84 162.677 23.1533 163.81 23.78C164.943 24.3933 165.83 25.2467 166.47 26.34C167.11 27.42 167.43 28.64 167.43 30C167.43 31.36 167.11 32.5867 166.47 33.68C165.83 34.76 164.943 35.6133 163.81 36.24C162.677 36.8533 161.41 37.16 160.01 37.16ZM160.01 35.38C161.037 35.38 161.957 35.1467 162.77 34.68C163.597 34.2133 164.243 33.5733 164.71 32.76C165.19 31.9333 165.43 31.0133 165.43 30C165.43 28.9867 165.19 28.0733 164.71 27.26C164.243 26.4333 163.597 25.7867 162.77 25.32C161.957 24.8533 161.037 24.62 160.01 24.62C158.983 24.62 158.05 24.8533 157.21 25.32C156.383 25.7867 155.73 26.4333 155.25 27.26C154.783 28.0733 154.55 28.9867 154.55 30C154.55 31.0133 154.783 31.9333 155.25 32.76C155.73 33.5733 156.383 34.2133 157.21 34.68C158.05 35.1467 158.983 35.38 160.01 35.38ZM182.527 23V37H180.887L172.487 26.56V37H170.487V23H172.127L180.527 33.44V23H182.527Z" fill="#475467"/>
</svg>
